{
    "asset" : {
        "generator" : "Khronos glTF Blender I/O v1.5.17",
        "version" : "2.0"
    },
    "scene" : 0,
    "scenes" : [
        {
            "name" : "Scene",
            "nodes" : [
                1
            ]
        }
    ],
    "nodes" : [
        {
            "mesh" : 0,
            "name" : "mesh1"
        },
        {
            "children" : [
                0
            ],
            "name" : "Renderer Node"
        }
    ],
    "materials" : [
        {
            "name" : "Material_1.002",
            "pbrMetallicRoughness" : {
                "baseColorTexture" : {
                    "index" : 0
                },
                "metallicFactor" : 0
            }
        }
    ],
    "meshes" : [
        {
            "name" : "mesh1.002",
            "primitives" : [
                {
                    "attributes" : {
                        "POSITION" : 0,
                        "NORMAL" : 1,
                        "TEXCOORD_0" : 2
                    },
                    "indices" : 3,
                    "material" : 0
                }
            ]
        }
    ],
    "textures" : [
        {
            "sampler" : 0,
            "source" : 0
        }
    ],
    "images" : [
        {
            "bufferView" : 4,
            "mimeType" : "image/png",
            "name" : "Image_1"
        }
    ],
    "accessors" : [
        {
            "bufferView" : 0,
            "componentType" : 5126,
            "count" : 66221,
            "max" : [
                7.041365146636963,
                45.9783821105957,
                0.03740242123603821
            ],
            "min" : [
                6.941678047180176,
                45.92030715942383,
                0.014700599014759064
            ],
            "type" : "VEC3"
        },
        {
            "bufferView" : 1,
            "componentType" : 5126,
            "count" : 66221,
            "type" : "VEC3"
        },
        {
            "bufferView" : 2,
            "componentType" : 5126,
            "count" : 66221,
            "type" : "VEC2"
        },
        {
            "bufferView" : 3,
            "componentType" : 5125,
            "count" : 66834,
            "type" : "SCALAR"
        }
    ],
    "bufferViews" : [
        {
            "buffer" : 0,
            "byteLength" : 794652,
            "byteOffset" : 0
        },
        {
            "buffer" : 0,
            "byteLength" : 794652,
            "byteOffset" : 794652
        },
        {
            "buffer" : 0,
            "byteLength" : 529768,
            "byteOffset" : 1589304
        },
        {
            "buffer" : 0,
            "byteLength" : 267336,
            "byteOffset" : 2119072
        },
        {
            "buffer" : 0,
            "byteLength" : 273,
            "byteOffset" : 2386408
        }
    ],
    "samplers" : [
        {
            "magFilter" : 9728,
            "minFilter" : 9984,
            "wrapS" : 33071,
            "wrapT" : 33071
        }
    ],
    "buffers" : [
        {
            "byteLength" : 2386684,
            "uri" : "data:application/octet-stream;base64,"
        }
    ]
}
